<svg xmlns="http://www.w3.org/2000/svg" width="85" height="109.588" viewBox="0 0 85 109.588"><g transform="translate(-2898.693 -1421.464)"><path d="M2973.227,1495.48l-32.036,32.036-32.037-32.036a27.185,27.185,0,0,1,0-38.444L2941.191,1425l32.036,32.036a27.175,27.175,0,0,1,0,38.444Z" transform="translate(0 0)" fill="none" stroke="#fff" stroke-linecap="square" stroke-miterlimit="10" stroke-width="5"/><g transform="translate(2901.193 1425)"><path d="M2941.191,1425l-32.037,32.036a27.184,27.184,0,1,0,38.444,38.444l12.814-12.815a9.061,9.061,0,1,0-12.814-12.815l-12.815,12.815a9.061,9.061,0,1,1-12.814-12.815l12.814-12.814a27.184,27.184,0,1,1,38.444,38.444l-32.036,32.036" transform="translate(-2901.193 -1425)" fill="none" stroke="#fff" stroke-linecap="square" stroke-miterlimit="10" stroke-width="5"/></g></g></svg>